<?xml version="1.0" encoding="utf-8"?>
<!-- Generator: Adobe Illustrator 19.0.0, SVG Export Plug-In . SVG Version: 6.00 Build 0)  -->
<svg version="1.1" id="Laag_1" xmlns="http://www.w3.org/2000/svg" xmlns:xlink="http://www.w3.org/1999/xlink" x="0px" y="0px"
	 viewBox="0 0 250 100" style="enable-background:new 0 0 250 100;" xml:space="preserve">
<style type="text/css">
	.st0{fill:url(#XMLID_55_);}
	.st1{fill:#D9EFF4;}
	.st2{fill:url(#XMLID_56_);}
	.st3{fill:url(#XMLID_57_);}
	.st4{fill:url(#XMLID_58_);}
	.st5{fill:url(#XMLID_59_);}
	.st6{fill:#00B2EF;}
	.st7{fill:#EA2127;}
</style>
<g id="XMLID_44_">
	<linearGradient id="XMLID_55_" gradientUnits="userSpaceOnUse" x1="8.9764" y1="33.594" x2="56.1384" y2="75.4706">
		<stop  offset="0" style="stop-color:#16A1DC"/>
		<stop  offset="1" style="stop-color:#14BDEF"/>
	</linearGradient>
	<path id="XMLID_54_" class="st0" d="M43.4,27.3l-0.2-0.1c0,0-0.1,0-0.3,0c-0.6,0-1.1,0.5-1.1,1.1v12.6c0,0.3,0.1,0.6,0.4,0.8
		c3.6,3,5.6,7.4,5.6,12.2c0,8.8-7.2,16-16,16c-8.8,0-16-7.2-16-16c0-4.8,2-9.1,5.7-12.2c0.2-0.2,0.3-0.5,0.3-0.8V28.3
		c0-0.6-0.5-1.1-1.1-1.1c-0.1,0-0.2,0-0.3,0.1l-0.2,0.1C9.1,32.2,2.1,43.5,2.9,55.6c0.4,7.1,3.5,13.8,8.6,18.8
		c5.1,5,11.8,8,18.9,8.4c0.4,0,0.9,0,1.4,0l0,0l0,0c0.5,0,1,0,1.4,0c7.1-0.3,13.8-3.3,18.9-8.4c5.1-5,8.2-11.7,8.6-18.8
		C61.4,43.5,54.4,32.2,43.4,27.3z"/>
	<path id="XMLID_51_" class="st1" d="M43.2,27.8L43,27.7c0,0-0.1,0-0.1,0c-0.3,0-0.6,0.3-0.6,0.6v12.6c0,0.2,0.1,0.3,0.2,0.4
		c3.7,3.1,5.8,7.6,5.8,12.6c0,9.1-7.4,16.5-16.5,16.5c-9.1,0-16.5-7.4-16.5-16.5c0-5,2.1-9.4,5.8-12.6c0.1-0.1,0.2-0.3,0.2-0.4V28.3
		c0-0.3-0.3-0.6-0.6-0.6c-0.1,0-0.1,0-0.2,0l-0.1,0c-10.9,4.8-17.7,16-17,27.8c0.4,7,3.4,13.5,8.4,18.5c5,5,11.6,7.9,18.6,8.2
		c0.4,0,0.9,0,1.4,0l0,0v0c0.5,0,1,0,1.4,0c7-0.3,13.6-3.3,18.6-8.2c5-5,8-11.5,8.4-18.5C60.9,43.7,54,32.5,43.2,27.8z M59.8,55.5
		C59,69.9,47.5,81.2,33.1,81.9c-0.4,0-0.8,0-1.4,0l0,0.2l0-0.2c-0.5,0-1,0-1.4,0C16,81.2,4.6,69.9,3.7,55.5
		C3,43.8,9.8,32.8,20.5,28.1l0.1-0.1c0.1,0,0.2,0.1,0.2,0.2v12.6c0,0.1,0,0.1-0.1,0.2c-3.8,3.2-5.9,7.8-5.9,12.8
		c0,9.3,7.6,16.9,16.9,16.9c9.3,0,16.9-7.6,16.9-16.9c0-5.1-2.1-9.6-5.9-12.8c0,0-0.1-0.1-0.1-0.2V28.3c0-0.1,0.1-0.2,0.3-0.2l0.1,0
		C53.8,32.8,60.5,43.8,59.8,55.5z"/>
	<linearGradient id="XMLID_56_" gradientUnits="userSpaceOnUse" x1="25.8176" y1="35.9819" x2="37.7484" y2="35.9819">
		<stop  offset="0" style="stop-color:#16A1DC"/>
		<stop  offset="1" style="stop-color:#14BDEF"/>
	</linearGradient>
	<path id="XMLID_48_" class="st2" d="M27.3,50.7h8.9c0.8,0,1.5-0.7,1.5-1.5V22.8c0-0.8-0.7-1.5-1.5-1.5h-8.9c-0.8,0-1.5,0.7-1.5,1.5
		v26.4C25.8,50,26.5,50.7,27.3,50.7z M26.2,22.8c0-0.6,0.5-1.2,1.2-1.2h8.9c0.6,0,1.2,0.5,1.2,1.2v26.4c0,0.6-0.5,1.2-1.2,1.2h-8.9
		c-0.6,0-1.2-0.5-1.2-1.2V22.8z"/>
	<linearGradient id="XMLID_57_" gradientUnits="userSpaceOnUse" x1="25.528" y1="46.7114" x2="38.038" y2="46.7114">
		<stop  offset="4.926108e-03" style="stop-color:#02A54F"/>
		<stop  offset="0.9704" style="stop-color:#3BB44A"/>
		<stop  offset="1" style="stop-color:#89CFF2"/>
	</linearGradient>
	<path id="XMLID_47_" class="st3" d="M26.2,49.1c0,0.6,0.5,1.2,1.2,1.2h8.9c0.6,0,1.2-0.5,1.2-1.2v-6H26.2V49.1z"/>
	<linearGradient id="XMLID_58_" gradientUnits="userSpaceOnUse" x1="25.528" y1="25.1986" x2="38.038" y2="25.1986">
		<stop  offset="4.926108e-03" style="stop-color:#424143"/>
		<stop  offset="1" style="stop-color:#59595C"/>
	</linearGradient>
	<path id="XMLID_46_" class="st4" d="M37.4,22.8c0-0.6-0.5-1.2-1.2-1.2h-8.9c-0.6,0-1.2,0.5-1.2,1.2v6h11.2V22.8z"/>
	<linearGradient id="XMLID_59_" gradientUnits="userSpaceOnUse" x1="25.528" y1="35.9819" x2="38.038" y2="35.9819">
		<stop  offset="0" style="stop-color:#EB2027"/>
		<stop  offset="0.9852" style="stop-color:#ED4A25"/>
	</linearGradient>
	<rect id="XMLID_45_" x="26.2" y="32" class="st5" width="11.2" height="8"/>
</g>
<g id="XMLID_20_">
	<path id="XMLID_42_" class="st6" d="M74.2,34.6v4h9.5V42h-9.5v4H85v3.4H69.7V31.2l15.3,0v3.4L74.2,34.6z"/>
	<path id="XMLID_40_" class="st6" d="M102.2,49.5l-9.5-11.7v11.7h-4.2V31.2h4l9.5,11.8V31.2h4.2v18.3H102.2z"/>
	<path id="XMLID_38_" class="st6" d="M119.1,34.7v14.8h-4.4V34.7h-6v-3.5h16.4v3.5H119.1z"/>
	<path id="XMLID_36_" class="st6" d="M131.9,34.6v4h9.5V42h-9.5v4h10.8v3.4h-15.3V31.2h15.3v3.4H131.9z"/>
	<path id="XMLID_33_" class="st6" d="M155.2,44.3h-0.4h-4.1v5.2h-4.4V31.2h8.5c5.1,0,8.1,2.3,8.1,6.3c0,2.8-1.3,4.9-3.7,5.9l4.2,6
		h-5L155.2,44.3z M154.7,40.8c2.4,0,3.8-1,3.8-3.1c0-2-1.4-3.1-3.8-3.1h-4.1v6.2H154.7z"/>
	<path id="XMLID_30_" class="st6" d="M174.9,31.2c5,0,7.9,2.3,7.9,6.3c0,4.3-2.9,6.7-7.9,6.7H171v5.2h-4.4V31.2H174.9z M171,40.8
		h3.7c2.5,0,3.9-1,3.9-3.1c0-2-1.4-3.1-3.9-3.1H171V40.8z"/>
	<path id="XMLID_27_" class="st6" d="M194.5,44.3h-0.4H190v5.2h-4.4V31.2h8.5c5.1,0,8.1,2.3,8.1,6.3c0,2.8-1.3,4.9-3.7,5.9l4.2,6h-5
		L194.5,44.3z M194.1,40.8c2.4,0,3.8-1,3.8-3.1c0-2-1.4-3.1-3.8-3.1H190v6.2H194.1z"/>
	<path id="XMLID_25_" class="st6" d="M205.9,49.5V31.2h4.4v18.3H205.9z"/>
	<path id="XMLID_23_" class="st6" d="M229.3,33l-1.7,3.4c-2.1-1.1-4.5-1.9-6.1-1.9c-1.5,0-2.5,0.5-2.5,1.5c0,3.4,10.5,1.5,10.4,8.1
		c0,3.6-3.3,5.5-7.7,5.5c-3.2,0-6.5-1.1-8.7-2.9l1.8-3.4c2,1.7,4.9,2.7,7,2.7c1.8,0,2.9-0.6,2.9-1.7c0-3.4-10.5-1.4-10.5-7.9
		c0-3.3,3.1-5.4,7.6-5.4C224.6,31,227.3,31.8,229.3,33z"/>
	<path id="XMLID_21_" class="st6" d="M237,34.6v4h9.5V42H237v4h10.8v3.4h-15.3V31.2l15.3,0v3.4L237,34.6z"/>
</g>
<path id="XMLID_18_" class="st7" d="M73.2,72.9l-3.5,0l0.2-19.3l3.5,0L73.2,72.9z"/>
<path id="XMLID_16_" class="st7" d="M82.9,76l-2.4,1.2c-2.6-4.2-3.9-8.4-3.9-12.8c0-4.4,1.4-8.7,4.1-12.8l2.3,1.2
	c-1.9,3.8-2.9,7.7-2.9,11.6C80.2,68.3,81.1,72.2,82.9,76z"/>
<g id="XMLID_12_">
	<path id="XMLID_13_" class="st7" d="M98,64.5c0,0.3-0.1,0.9-0.2,1.9l-9.1-0.1c0.2,2.1,1.4,3.2,3.7,3.2c1.3,0,2.5-0.2,3.6-0.7l1,2.6
		c-1.6,0.7-3.2,1-4.8,1c-2.1,0-3.9-0.7-5.2-2.1c-1.3-1.4-1.9-3.1-1.9-5.3c0-2.1,0.6-3.9,1.7-5.2c1.2-1.4,2.8-2.1,4.9-2.1
		c2,0,3.5,0.7,4.7,1.9C97.5,60.9,98,62.5,98,64.5z M94.5,63.7c0-0.9-0.2-1.7-0.7-2.3c-0.5-0.6-1.2-0.9-2.1-0.9
		c-0.9,0-1.6,0.3-2.1,0.9c-0.5,0.6-0.8,1.4-0.9,2.2L94.5,63.7z"/>
</g>
<g id="XMLID_9_">
	<path id="XMLID_10_" class="st7" d="M113.2,72.4l-3.4,0l0.1-8.9c0-1.7-0.9-2.6-2.8-2.6c-0.8,0-1.7,0.2-2.8,0.6
		c0,0.3,0.1,0.5,0.1,0.6l-0.1,10.3l-3.4,0l0.1-11c0-0.4-0.1-1.1-0.2-2c2.6-0.9,4.8-1.4,6.4-1.4c4.1,0,6.1,1.7,6.1,5.1L113.2,72.4z"
		/>
</g>
<g id="XMLID_6_">
	<path id="XMLID_7_" class="st7" d="M130.1,58.4l-5.5,14.9c-1.2,3.4-3.1,5.4-5.5,5.9l-1.7-2.5c2.1-0.5,3.6-1.9,4.5-4.1
		c-0.6-0.2-1.2-0.7-1.6-1.7l-5.1-12.6l3.8,0l3.9,10.8l3.7-10.7L130.1,58.4z"/>
</g>
<g id="XMLID_2_">
	<path id="XMLID_3_" class="st7" d="M143.1,71.9c-2.4,0.7-4.4,1.1-6,1c-1.6,0-3-0.3-4.1-0.9c-1.4-0.8-2.1-1.9-2.1-3.4
		c0-1.6,0.8-2.8,2.3-3.6c0.6-0.3,2-0.7,4.2-1.1c1.5-0.3,2.2-0.8,2.3-1.4c0-0.9-0.8-1.3-2.3-1.3c-1.3,0-2.6,0.3-3.9,0.8l-1.1-2.6
		c1.8-0.8,3.6-1.2,5.5-1.2c1.6,0,2.8,0.4,3.7,1.1c1,0.8,1.5,2,1.5,3.5l-0.1,7.3C142.9,70.4,143,71,143.1,71.9z M139.6,69.7
		c0-0.2-0.1-0.4,0-0.5l0-3.5c-0.3,0.3-0.9,0.5-1.8,0.7c-1.1,0.3-1.9,0.4-2.2,0.6c-0.7,0.3-1,0.8-1,1.3c0,1.1,0.9,1.7,2.6,1.7
		C138,70.1,138.8,70,139.6,69.7z"/>
</g>
</svg>
